# xmcd CD database file
#
# Track frame offsets:
#	150
#	2242
#	18612
#	38962
#	55395
#	75375
#	91612
#	101212
#	114825
#	132812
#	155200
#	174312
#	181812
#	200662
#	205175
#
# Disc length: 2757 seconds
#
# Revision: 0
# Processed by: cddbd v1.5.1PL0 Copyright (c) Steve Scherf et al.
# Submitted via: CDex 1.51
#
DISCID=bf0ac30f
DTITLE=小林旭 - 望郷・さすらい・港町
DYEAR=2001
DGENRE=Blues
TTITLE0=プロローグ 〜雨空
TTITLE1=水たまり
TTITLE2=東京物語
TTITLE3=三年前の背広
TTITLE4=鎮魂譜
TTITLE5=はぐれ雲
TTITLE6=乗換駅
TTITLE7=港町挽歌
TTITLE8=望郷さすらい港町
TTITLE9=ゆきずりの冬
TTITLE10=夢途中下車
TTITLE11=ふきのとう
TTITLE12=あじさい
TTITLE13=エピローグ 〜雨上り
TTITLE14=水たまり 〜reprise
EXTD=YEAR: 2001
EXTT0=
EXTT1=
EXTT2=
EXTT3=
EXTT4=
EXTT5=
EXTT6=
EXTT7=
EXTT8=
EXTT9=
EXTT10=
EXTT11=
EXTT12=
EXTT13=
EXTT14=
PLAYORDER=
